<svg width="25" height="20" viewBox="0 0 25 20" fill="none" xmlns="http://www.w3.org/2000/svg">
<path d="M8.91075 19C17.213 19 21.7546 12.0731 21.7546 6.07666C21.7546 5.88282 21.7546 5.68622 21.7464 5.49238C22.6306 4.84786 23.3937 4.0499 24 3.13589C23.1741 3.50259 22.2988 3.74427 21.4026 3.85308C22.3466 3.28492 23.0536 2.39097 23.3922 1.33737C22.5054 1.86644 21.5346 2.23784 20.5226 2.43531C19.8422 1.70569 18.9419 1.22234 17.9611 1.06013C16.9803 0.897915 15.9737 1.06589 15.0973 1.53804C14.2209 2.01019 13.5236 2.76017 13.1134 3.67179C12.7031 4.58342 12.6029 5.60582 12.8281 6.58063C11.0334 6.49002 9.27762 6.02054 7.67468 5.20266C6.07175 4.38477 4.65744 3.23675 3.5235 1.83304C2.94784 2.83418 2.77216 4.0184 3.03214 5.14523C3.29211 6.27206 3.96825 7.25702 4.92325 7.9001C4.20762 7.87562 3.50772 7.68212 2.88 7.33521V7.39751C2.88123 8.44627 3.24205 9.46244 3.90145 10.2743C4.56086 11.0861 5.4784 11.6437 6.499 11.853C6.11161 11.9604 5.71144 12.014 5.30963 12.0122C5.02635 12.0131 4.74365 11.9866 4.46537 11.9333C4.75383 12.8361 5.3155 13.6254 6.07171 14.1907C6.82793 14.7561 7.74081 15.069 8.6825 15.0859C7.08276 16.3511 5.10668 17.0373 3.0725 17.0339C2.71407 17.0354 2.35588 17.0146 2 16.9716C4.06458 18.297 6.46228 19.0007 8.91075 19V19Z" fill="white"/>
</svg>
